<?xml version="1.0" standalone="no"?>
<!DOCTYPE svg PUBLIC "-//W3C//DTD SVG 20010904//EN"
 "http://www.w3.org/TR/2001/REC-SVG-20010904/DTD/svg10.dtd">
<svg version="1.0" xmlns="http://www.w3.org/2000/svg"
 width="366.000000pt" height="322.000000pt" viewBox="0 0 366.000000 322.000000"
 preserveAspectRatio="xMidYMid meet">

<g transform="translate(0.000000,322.000000) scale(0.100000,-0.100000)"
fill="#fff" stroke="none">
<path d="M26 2674 c-14 -14 -16 -119 -16 -1010 0 -667 3 -1002 10 -1015 11
-19 41 -19 1804 -19 1624 0 1795 1 1807 16 9 11 10 20 2 32 -9 16 -141 17
-1753 22 l-1742 5 353 358 c293 298 356 357 373 352 51 -16 103 -16 138 -2
l36 15 67 -68 c66 -67 67 -69 56 -101 -44 -126 40 -249 171 -249 99 0 178 78
178 177 0 29 -7 68 -17 87 l-16 35 83 91 84 92 41 -44 c22 -24 92 -101 155
-171 240 -265 381 -348 595 -348 253 0 474 137 873 540 143 145 172 180 170
201 -2 14 -10 26 -20 28 -10 2 -88 -69 -215 -195 -208 -209 -296 -286 -432
-377 -161 -108 -320 -152 -459 -127 -169 30 -284 118 -555 425 l-106 120 29
35 c16 20 42 51 58 70 l29 35 78 -67 c90 -77 228 -173 302 -211 28 -14 91 -38
140 -52 119 -36 279 -38 401 -5 225 60 455 196 800 475 85 68 112 96 110 111
-6 43 -43 28 -157 -64 -708 -574 -1057 -622 -1543 -213 -43 36 -78 69 -78 74
0 5 109 133 243 285 133 151 253 288 267 304 24 27 27 28 68 17 31 -9 53 -9
82 -1 l41 10 114 -144 114 -144 -15 -34 c-46 -112 37 -235 161 -235 118 0 197
113 159 226 l-15 45 88 92 c62 65 93 91 108 89 105 -14 121 -13 165 10 132 68
132 249 0 316 -152 77 -309 -67 -250 -230 15 -41 19 -35 -107 -172 -52 -56
-55 -58 -83 -46 -28 11 -103 10 -145 -4 -16 -5 -34 11 -95 91 -41 53 -90 116
-109 140 l-33 43 16 40 c66 165 -102 310 -252 218 -64 -39 -93 -153 -57 -222
12 -23 13 -32 3 -44 -46 -57 -521 -598 -527 -600 -4 -1 -37 22 -74 52 -203
166 -363 236 -545 236 -283 0 -536 -187 -997 -740 -49 -58 -92 -106 -97 -108
-4 -2 -8 322 -8 720 0 719 -1 748 -31 748 -4 0 -15 -7 -23 -16z m3397 -129
c78 -37 108 -154 58 -223 -34 -48 -74 -65 -139 -60 -49 4 -59 9 -94 46 -34 37
-38 47 -38 94 0 120 109 193 213 143z m-2044 -574 c89 -32 244 -130 327 -204
l48 -44 -53 -61 c-30 -34 -56 -62 -59 -62 -3 0 -25 17 -50 38 -127 104 -212
137 -336 130 -52 -4 -100 -13 -132 -27 l-51 -22 -39 23 c-47 28 -133 30 -181
5 -80 -43 -117 -158 -78 -241 l18 -37 -264 -267 c-146 -147 -302 -306 -349
-354 -46 -49 -86 -88 -89 -88 -3 0 -5 78 -4 172 l2 173 43 55 c157 202 410
482 537 596 150 134 292 218 414 244 78 17 204 4 296 -29z m-373 -250 c54 -25
84 -73 84 -137 0 -62 -27 -107 -79 -134 -50 -25 -84 -25 -138 0 -97 43 -113
171 -31 247 48 45 100 53 164 24z m418 -50 c34 -17 86 -53 116 -79 l55 -49
-60 -68 c-33 -37 -71 -81 -85 -97 -22 -26 -28 -28 -53 -19 -39 15 -117 14
-148 -3 -26 -13 -29 -12 -90 50 l-63 63 15 43 c8 24 13 67 12 96 -2 53 -1 54
35 69 96 41 175 39 266 -6z m-16 -351 c45 -28 72 -76 72 -130 0 -54 -27 -102
-72 -131 -47 -29 -137 -23 -174 12 -77 72 -71 195 11 249 40 27 119 27 163 0z"/>
</g>
</svg>
